<svg width="48" height="48" viewBox="0 0 48 48" fill="none" xmlns="http://www.w3.org/2000/svg">
<path d="M3 22C3.8125 22 4.58594 21.8437 5.32031 21.5312C6.05469 21.2188 6.6875 20.7891 7.21875 20.2422C7.75 19.6953 8.17969 19.0625 8.50781 18.3438C8.83594 17.625 9 16.8438 9 16C9 14.8906 8.97656 13.7812 8.92969 12.6719C8.88281 11.5625 8.91406 10.4844 9.02344 9.4375C9.13281 8.39062 9.38281 7.36719 9.77344 6.36719C10.1641 5.36719 10.7812 4.45312 11.625 3.625C12.4688 2.78125 13.4453 2.13281 14.5547 1.67969C15.6641 1.22656 16.8125 1 18 1V4C17.1719 4 16.3984 4.15625 15.6797 4.46875C14.9609 4.78125 14.3281 5.21094 13.7812 5.75781C13.2344 6.30469 12.8047 6.94531 12.4922 7.67969C12.1797 8.41406 12.0156 9.1875 12 10C12 10.875 12.0156 11.7344 12.0469 12.5781C12.0781 13.4219 12.0859 14.2578 12.0703 15.0859C12.0547 15.9141 11.9766 16.7109 11.8359 17.4766C11.6953 18.2422 11.4844 18.9844 11.2031 19.7031C10.9219 20.4219 10.5156 21.0938 9.98438 21.7188C9.45313 22.3437 8.78906 22.9375 7.99219 23.5C8.80469 24.0469 9.46875 24.6406 9.98438 25.2812C10.5 25.9219 10.9062 26.5938 11.2031 27.2969C11.5 28 11.7109 28.7344 11.8359 29.5C11.9609 30.2656 12.0312 31.0625 12.0469 31.8906C12.0625 32.7187 12.0625 33.5547 12.0469 34.3984C12.0312 35.2422 12.0156 36.1094 12 37C12 37.8281 12.1563 38.6016 12.4688 39.3203C12.7812 40.0391 13.2109 40.6719 13.7578 41.2188C14.3047 41.7656 14.9375 42.1953 15.6562 42.5078C16.375 42.8203 17.1562 42.9844 18 43V46C16.8125 46 15.6641 45.7734 14.5547 45.3203C13.4453 44.8672 12.4688 44.2188 11.625 43.375C10.7812 42.5312 10.1719 41.6172 9.79688 40.6328C9.42188 39.6484 9.17188 38.6328 9.04688 37.5859C8.92187 36.5391 8.88281 35.4531 8.92969 34.3281C8.97656 33.2031 9 32.0938 9 31C9 30.1875 8.84375 29.4141 8.53125 28.6797C8.21875 27.9453 7.78906 27.3125 7.24219 26.7812C6.69531 26.25 6.05469 25.8203 5.32031 25.4922C4.58594 25.1641 3.8125 25 3 25V22ZM30 1C31.1875 1 32.3359 1.22656 33.4453 1.67969C34.5547 2.13281 35.5312 2.78125 36.375 3.625C37.2188 4.46875 37.8281 5.38281 38.2031 6.36719C38.5781 7.35156 38.8281 8.36719 38.9531 9.41406C39.0781 10.4609 39.1172 11.5469 39.0703 12.6719C39.0234 13.7969 39 14.9062 39 16C39 16.8281 39.1563 17.6016 39.4688 18.3203C39.7812 19.0391 40.2109 19.6719 40.7578 20.2188C41.3047 20.7656 41.9375 21.1953 42.6562 21.5078C43.375 21.8203 44.1562 21.9844 45 22V25C44.1719 25 43.3984 25.1563 42.6797 25.4688C41.9609 25.7812 41.3281 26.2109 40.7812 26.7578C40.2344 27.3047 39.8047 27.9453 39.4922 28.6797C39.1797 29.4141 39.0156 30.1875 39 31C39 32.1094 39.0234 33.2188 39.0703 34.3281C39.1172 35.4375 39.0859 36.5156 38.9766 37.5625C38.8672 38.6094 38.6172 39.6328 38.2266 40.6328C37.8359 41.6328 37.2188 42.5469 36.375 43.375C35.5312 44.2188 34.5547 44.8672 33.4453 45.3203C32.3359 45.7734 31.1875 46 30 46V43C30.8125 43 31.5859 42.8437 32.3203 42.5312C33.0547 42.2188 33.6875 41.7891 34.2188 41.2422C34.75 40.6953 35.1797 40.0625 35.5078 39.3438C35.8359 38.625 36 37.8438 36 37C36 36.125 35.9844 35.2656 35.9531 34.4219C35.9219 33.5781 35.9141 32.7422 35.9297 31.9141C35.9453 31.0859 36.0234 30.2891 36.1641 29.5234C36.3047 28.7578 36.5156 28.0156 36.7969 27.2969C37.0781 26.5781 37.4844 25.9062 38.0156 25.2812C38.5469 24.6563 39.2109 24.0625 40.0078 23.5C39.1953 22.9531 38.5312 22.3594 38.0156 21.7188C37.5 21.0781 37.0938 20.4062 36.7969 19.7031C36.5 19 36.2891 18.2656 36.1641 17.5C36.0391 16.7344 35.9688 15.9375 35.9531 15.1094C35.9375 14.2813 35.9375 13.4453 35.9531 12.6016C35.9688 11.7578 35.9844 10.8906 36 10C36 9.1875 35.8437 8.41406 35.5312 7.67969C35.2188 6.94531 34.7891 6.3125 34.2422 5.78125C33.6953 5.25 33.0547 4.82031 32.3203 4.49219C31.5859 4.16406 30.8125 4 30 4V1Z" fill="#1192EE"/>
<path d="M28.1351 14.6864C28.2278 14.2846 28.5855 14 28.9979 14V14C29.5673 14 29.9887 14.5297 29.8607 15.0845L28.9758 18.9206C28.8831 19.3224 28.5254 19.607 28.113 19.607V19.607C27.5436 19.607 27.1222 19.0773 27.2502 18.5225L28.1351 14.6864ZM31.1642 14.6864C31.2569 14.2846 31.6146 14 32.027 14V14C32.5964 14 33.0178 14.5297 32.8898 15.0845L32.0049 18.9206C31.9122 19.3224 31.5545 19.607 31.1421 19.607V19.607C30.5727 19.607 30.1513 19.0773 30.2793 18.5225L31.1642 14.6864Z" fill="#1192EE"/>
<path d="M17.1351 14.6864C17.2278 14.2846 17.5855 14 17.9979 14V14C18.5673 14 18.9887 14.5297 18.8607 15.0845L17.9758 18.9206C17.8831 19.3224 17.5254 19.607 17.113 19.607V19.607C16.5436 19.607 16.1222 19.0773 16.2502 18.5225L17.1351 14.6864ZM20.1642 14.6864C20.2569 14.2846 20.6146 14 21.027 14V14C21.5964 14 22.0178 14.5297 21.8898 15.0845L21.0049 18.9206C20.9122 19.3224 20.5545 19.607 20.1421 19.607V19.607C19.5727 19.607 19.1513 19.0773 19.2793 18.5225L20.1642 14.6864Z" fill="#1192EE"/>
<path d="M25.4105 31.1235C24.8635 31.6385 24.25 31.915 23.2555 31.915C21.5055 31.915 19.937 30.687 19.1615 28.9L19.8505 28.4535C20.7525 30.121 21.923 30.447 22.661 30.5775C22.522 30.309 22.4735 29.9575 22.5055 29.6125C22.589 28.7105 23.3295 28 24.25 28C24.7141 28 25.1592 28.1844 25.4874 28.5126C25.8156 28.8408 26 29.2859 26 29.75C26 30.2865 25.755 30.8 25.4105 31.124V31.1235Z" fill="#1192EE"/>
<rect x="27" y="28" width="3" height="3" rx="1.5" fill="#1192EE"/>
</svg>
