<svg width="400" height="400" viewBox="0 0 400 400" fill="none" xmlns="http://www.w3.org/2000/svg">
<g style="mix-blend-mode:lighten">
<circle cx="200" cy="200" r="100" fill="url(#paint0_radial_1903_67)" fill-opacity="0.2"/>
<g clip-path="url(#clip0_1903_67)">
<path d="M295.63 156.275L318.855 170.045C320.043 170.749 320.435 172.283 319.73 173.47L305.961 196.695C305.257 197.883 303.723 198.275 302.535 197.571L279.31 183.801C278.123 183.097 277.731 181.563 278.435 180.375L292.205 157.15C292.909 155.963 294.442 155.571 295.63 156.275Z" fill="#3178C6"/>
<path d="M296.884 186.151L295.123 189.121C295.459 189.655 295.92 190.179 296.506 190.694C297.092 191.208 297.751 191.682 298.482 192.116C299.194 192.538 299.91 192.871 300.632 193.115C301.353 193.358 302.048 193.467 302.717 193.441C303.385 193.415 304.009 193.233 304.59 192.896C305.171 192.559 305.681 192.019 306.121 191.277C306.44 190.739 306.64 190.219 306.719 189.718C306.798 189.221 306.779 188.714 306.663 188.224C306.547 187.729 306.351 187.23 306.076 186.728C305.8 186.226 305.462 185.706 305.061 185.167C304.767 184.775 304.509 184.412 304.29 184.076C304.07 183.741 303.898 183.431 303.775 183.144C303.652 182.858 303.584 182.592 303.571 182.346C303.558 182.1 303.617 181.865 303.749 181.642C303.87 181.438 304.032 181.285 304.235 181.184C304.437 181.082 304.669 181.03 304.931 181.026C305.192 181.022 305.482 181.071 305.799 181.171C306.116 181.271 306.445 181.422 306.786 181.624C307.033 181.771 307.284 181.945 307.537 182.145C307.791 182.345 308.034 182.567 308.267 182.81C308.499 183.051 308.713 183.31 308.906 183.584C309.094 183.848 309.257 184.13 309.393 184.424L311.038 181.649C310.689 181.208 310.271 180.787 309.785 180.386C309.299 179.985 308.709 179.579 308.016 179.168C307.31 178.749 306.596 178.428 305.875 178.206C305.154 177.983 304.457 177.89 303.787 177.927C303.116 177.964 302.494 178.149 301.92 178.482C301.346 178.815 300.854 179.328 300.443 180.021C299.918 180.905 299.726 181.812 299.867 182.74C300.007 183.667 300.469 184.656 301.252 185.706C301.544 186.09 301.827 186.48 302.103 186.875C302.361 187.245 302.567 187.593 302.721 187.919C302.875 188.244 302.966 188.553 302.994 188.845C303.021 189.138 302.958 189.414 302.804 189.674C302.694 189.861 302.537 190.017 302.348 190.125C302.158 190.234 301.933 190.292 301.672 190.301C301.412 190.31 301.121 190.264 300.799 190.165C300.477 190.067 300.127 189.905 299.749 189.681C299.105 189.299 298.534 188.808 298.037 188.208C297.539 187.608 297.154 186.922 296.884 186.151ZM296.315 175.826L300.134 178.09L301.584 175.645L290.939 169.334L289.49 171.779L293.29 174.032L286.835 184.92L289.86 186.713L296.315 175.826Z" fill="white"/>
</g>
<g clip-path="url(#clip1_1903_67)">
<path d="M280.703 265.178L264.941 258.81C261.101 257.258 256.729 259.113 255.178 262.954L248.809 278.716C247.258 282.557 249.113 286.928 252.954 288.479L268.716 294.848C272.556 296.399 276.928 294.544 278.479 290.703L284.848 274.941C286.399 271.101 284.544 266.73 280.703 265.178Z" fill="#F0DB4F"/>
<path d="M255.771 283.946L258.597 283.489C258.721 284.443 258.854 285.261 259.81 285.647C260.726 286.018 261.448 285.893 262.012 284.499L265.842 275.018L268.63 276.145L264.784 285.664C263.617 288.552 261.393 289.183 258.924 288.185C256.693 287.284 255.865 285.606 255.771 283.946M265.751 287.631L268.552 287.234C268.756 288.451 269.243 289.482 270.617 290.037C271.772 290.504 272.742 290.224 273.064 289.427C273.45 288.471 272.831 287.827 271.781 286.754L271.205 286.174C269.539 284.505 268.639 282.89 269.557 280.62C270.402 278.529 272.639 277.579 275.128 278.585C276.901 279.301 277.926 280.433 278.19 282.417L275.456 282.934C275.324 281.884 274.943 281.337 274.147 281.015C273.33 280.685 272.603 280.993 272.329 281.67C271.991 282.507 272.372 283.055 273.358 284.055L273.934 284.636C275.894 286.609 276.81 288.184 275.869 290.514C274.855 293.024 272.328 293.601 269.679 292.531C267.09 291.485 265.916 289.574 265.751 287.631Z" fill="#323330"/>
</g>
<g clip-path="url(#clip2_1903_67)">
<path d="M123.335 162.233L109.556 148.455C108.763 147.661 107.476 147.661 106.681 148.455L103.82 151.316L107.45 154.946C108.294 154.661 109.261 154.852 109.933 155.524C110.609 156.201 110.798 157.176 110.506 158.022L114.004 161.521C114.851 161.229 115.827 161.417 116.503 162.094C117.448 163.039 117.448 164.569 116.503 165.514C116.278 165.739 116.012 165.917 115.718 166.039C115.425 166.16 115.11 166.223 114.793 166.223C114.475 166.223 114.16 166.16 113.867 166.039C113.573 165.917 113.307 165.739 113.082 165.514C112.745 165.176 112.515 164.747 112.421 164.278C112.327 163.81 112.374 163.325 112.556 162.884L109.294 159.622L109.293 168.207C109.53 168.324 109.746 168.478 109.933 168.664C110.878 169.608 110.878 171.139 109.933 172.085C108.988 173.029 107.457 173.029 106.513 172.085C105.569 171.139 105.569 169.608 106.513 168.664C106.74 168.437 107.009 168.258 107.305 168.136V159.472C107.009 159.351 106.739 159.171 106.513 158.944C105.798 158.229 105.626 157.179 105.993 156.3L102.414 152.722L92.9664 162.169C92.5852 162.551 92.3711 163.068 92.3711 163.607C92.3711 164.146 92.5852 164.663 92.9664 165.044L106.746 178.823C107.539 179.616 108.826 179.616 109.62 178.823L123.335 165.108C123.716 164.727 123.93 164.21 123.93 163.671C123.93 163.131 123.716 162.614 123.335 162.233Z" fill="#F34F29"/>
</g>
<path d="M203.703 116.531L201.19 88.3379H228.81L226.294 116.526L214.983 119.662L203.703 116.531Z" fill="#1572B6"/>
<path d="M215 117.266L224.14 114.732L226.29 90.6431H215V117.266Z" fill="#33A9DC"/>
<path d="M215 100.857H219.576L219.892 97.3166H215V93.8589H223.671L223.588 94.7866L222.738 104.315H215V100.857Z" fill="white"/>
<path d="M215.021 109.837L215.005 109.842L211.155 108.802L210.908 106.044H207.438L207.922 111.474L215.005 113.439L215.021 113.435V109.837Z" fill="#EBEBEB"/>
<path d="M219.282 104.169L218.865 108.799L215.009 109.84V113.438L222.097 111.473L222.149 110.889L222.751 104.169H219.282Z" fill="white"/>
<path d="M215.012 93.8589V97.3166H206.66L206.591 96.5396L206.433 94.7866L206.351 93.8589H215.012ZM215 100.858V104.316H211.198L211.129 103.539L210.971 101.786L210.889 100.858H215Z" fill="#EBEBEB"/>
<g clip-path="url(#clip3_1903_67)">
<path d="M128.349 287.952L115.163 266.359L137.294 255.413L146.448 278.996L138.628 285.991L128.349 287.952Z" fill="#E44F26"/>
<path d="M137.692 284.064L144.011 278.412L136.188 258.259L127.142 262.733L137.692 284.064Z" fill="#F1662A"/>
<path d="M131.285 271.111L127.619 272.924L125.963 270.212L129.882 268.274L128.512 265.503L121.565 268.939L121.999 269.65L126.456 276.948L132.656 273.881L131.285 271.111ZM134.844 278.306L134.833 278.316L131.336 279.009L130.046 276.897L127.265 278.273L129.804 282.43L136.259 281.198L136.27 281.189L134.844 278.306Z" fill="#EBEBEB"/>
<path d="M131.276 271.116L132.646 273.887L136.057 272.199L137.514 275.952L134.836 278.314L136.261 281.196L141.163 276.812L140.972 276.324L138.016 268.708L137.716 267.931L131.276 271.116ZM128.502 265.508L129.873 268.279L136.565 264.969L136.313 264.32L135.744 262.852L135.443 262.076L128.502 265.508Z" fill="white"/>
</g>
</g>
<defs>
<radialGradient id="paint0_radial_1903_67" cx="0" cy="0" r="1" gradientUnits="userSpaceOnUse" gradientTransform="translate(200 200) rotate(90) scale(100)">
<stop stop-color="#9133EA" stop-opacity="0.75"/>
<stop offset="1" stop-color="#9133EA" stop-opacity="0.02"/>
</radialGradient>
<clipPath id="clip0_1903_67">
<rect width="32" height="32" fill="white" transform="translate(293.48 155) rotate(30.6633)"/>
</clipPath>
<clipPath id="clip1_1903_67">
<rect width="32" height="32" fill="white" transform="translate(257.987 256) rotate(22)"/>
</clipPath>
<clipPath id="clip2_1903_67">
<rect width="32" height="32" fill="white" transform="translate(92.1504 147.639)"/>
</clipPath>
<clipPath id="clip3_1903_67">
<rect width="32" height="32" fill="white" transform="translate(111 266.187) rotate(-26.3161)"/>
</clipPath>
</defs>
</svg>
