<svg width="399" height="400" viewBox="0 0 399 400" fill="none" xmlns="http://www.w3.org/2000/svg">
<g style="mix-blend-mode:lighten">
<g style="mix-blend-mode:screen" clip-path="url(#clip0_1903_223)">
<path d="M228.056 229.228L214.498 231.999L214.045 249.341L224.123 256.95L235.918 252.445L240.308 235.661L228.056 229.228Z" fill="#DD0031"/>
<path d="M228.055 229.228L227.619 232.305L227.621 232.291L224.122 256.95L235.918 252.444L240.307 235.66L228.055 229.228Z" fill="#C3002F"/>
<path d="M227.621 232.291L216.987 249.235L219.995 249.662L222.191 245.845L229.039 246.816L230.086 251.094L233.094 251.52L227.621 232.291ZM228.339 244.172L223.626 243.503L226.787 238.168L228.339 244.172Z" fill="white"/>
</g>
<g clip-path="url(#clip1_1903_223)">
<path d="M139.38 217.812C138.214 216.568 138.18 214.512 139.53 213.331L153.372 201.23C154.722 200.049 156.756 200.359 157.832 201.68C158.867 202.95 160.318 204.497 161.857 205.447C163.401 206.401 164.802 206.631 166.008 205.765L167.059 206.967C166.039 208.046 166.08 209.465 166.819 211.123C167.555 212.775 168.894 214.42 170.014 215.614C171.18 216.858 171.215 218.914 169.864 220.095L156.023 232.196C154.672 233.377 152.639 233.068 151.562 231.746C150.528 230.477 149.077 228.929 147.537 227.979C145.993 227.026 144.591 226.797 143.385 227.663L142.334 226.461C143.354 225.382 143.314 223.962 142.576 222.304C141.84 220.651 140.5 219.007 139.38 217.812Z" fill="url(#paint0_linear_1903_223)"/>
<g filter="url(#filter0_d_1903_223)">
<path d="M159.726 221.286C161.913 219.374 162.294 217.151 160.75 215.385C159.583 214.05 157.798 213.905 156.268 214.973L156.22 214.917C157.099 213.854 157.072 212.197 156.142 211.134C154.816 209.618 152.756 209.677 150.933 211.271L146.83 214.858L155.602 224.891L159.726 221.286ZM149.538 214.735L151.661 212.88C152.815 211.871 153.92 211.812 154.734 212.744C155.604 213.738 155.328 214.961 153.946 216.169L152.158 217.732L149.538 214.735ZM156.085 222.224L153.197 218.921L155.306 217.078C156.816 215.758 158.086 215.629 159.034 216.713C159.982 217.798 159.725 219.042 158.286 220.3L156.085 222.224Z" fill="url(#paint1_linear_1903_223)"/>
</g>
</g>
<g clip-path="url(#clip2_1903_223)">
<path d="M183.46 145.255C179.207 144.92 176.381 146.838 174.983 151.008C176.746 149.006 178.669 148.355 180.754 149.054C181.944 149.453 182.742 150.402 183.625 151.452C185.064 153.162 186.73 155.142 190.683 155.453C194.936 155.787 197.762 153.87 199.16 149.7C197.398 151.701 195.474 152.352 193.389 151.653C192.2 151.254 191.402 150.306 190.518 149.256C189.079 147.545 187.414 145.566 183.46 145.255ZM174.732 154.198C170.479 153.863 167.653 155.781 166.255 159.951C168.017 157.949 169.941 157.298 172.026 157.997C173.215 158.396 174.013 159.345 174.897 160.395C176.336 162.105 178.001 164.085 181.955 164.396C186.208 164.73 189.034 162.813 190.432 158.643C188.67 160.644 186.746 161.295 184.661 160.596C183.471 160.197 182.673 159.249 181.79 158.199C180.351 156.488 178.686 154.509 174.732 154.198Z" fill="url(#paint2_linear_1903_223)"/>
</g>
<path d="M254.11 183.572C253.231 183.573 252.363 183.774 251.573 184.16C251.326 183.749 251.134 183.307 251.005 182.846C250.93 182.484 250.913 182.113 250.954 181.746C251.039 181.342 251.15 180.944 251.286 180.554C251.281 180.503 251.225 180.262 250.662 180.254C250.099 180.246 249.614 180.361 249.562 180.51C249.464 180.782 249.386 181.061 249.327 181.344C248.861 182.493 248.287 183.596 247.614 184.638C247.237 184.019 247.081 183.29 247.174 182.572C247.259 182.168 247.37 181.77 247.506 181.38C247.501 181.329 247.445 181.088 246.882 181.08C246.319 181.072 245.834 181.187 245.782 181.336C245.73 181.485 245.664 181.836 245.547 182.17C245.43 182.504 244.064 185.556 243.706 186.343C243.522 186.743 243.363 187.069 243.251 187.289C243.246 187.303 243.239 187.317 243.231 187.33L243.078 187.622V187.627C243.001 187.765 242.919 187.893 242.878 187.893C242.806 187.607 242.81 187.308 242.888 187.024C243.088 185.965 243.578 184.319 243.573 184.262C243.573 184.231 243.665 183.945 243.256 183.797C243.161 183.752 243.055 183.737 242.951 183.755C242.848 183.773 242.752 183.822 242.678 183.897C242.642 183.897 242.617 183.984 242.617 183.984C242.617 183.984 243.062 182.133 241.768 182.133C241.264 182.234 240.785 182.435 240.36 182.724C239.935 183.013 239.572 183.384 239.293 183.816C238.945 184.005 238.204 184.409 237.411 184.844C237.111 185.013 236.797 185.182 236.506 185.344C236.486 185.324 236.465 185.298 236.445 185.278C234.87 183.6 231.975 182.416 232.1 180.171C232.146 179.353 232.427 177.205 237.659 174.596C241.965 172.474 245.392 173.062 245.985 174.366C246.834 176.228 244.149 179.685 239.7 180.186C239.208 180.286 238.699 180.274 238.212 180.151C237.726 180.027 237.273 179.797 236.887 179.475C236.652 179.219 236.616 179.204 236.529 179.255C236.386 179.332 236.478 179.562 236.529 179.695C236.699 180.002 236.928 180.272 237.204 180.489C237.48 180.706 237.796 180.865 238.135 180.958C239.885 181.336 241.71 181.155 243.352 180.441C246.052 179.398 248.152 176.498 247.536 174.069C246.917 171.604 242.826 170.791 238.954 172.169C236.529 172.985 234.288 174.27 232.359 175.952C230.226 177.947 229.889 179.68 230.027 180.407C230.527 182.985 234.078 184.662 235.499 185.907C235.435 185.943 235.37 185.979 235.305 186.014C234.594 186.367 231.884 187.784 231.205 189.282C230.438 190.982 231.328 192.197 231.916 192.361C232.802 192.573 233.732 192.503 234.576 192.161C235.421 191.819 236.137 191.222 236.626 190.453C237.042 189.815 237.298 189.086 237.371 188.328C237.445 187.57 237.334 186.806 237.049 186.1C237.044 186.088 237.037 186.078 237.029 186.069L237.586 185.742C237.924 185.542 238.267 185.349 238.614 185.164C238.406 185.764 238.284 186.391 238.251 187.026C238.18 187.999 238.478 188.962 239.085 189.726C239.177 189.805 239.284 189.866 239.4 189.903C239.516 189.941 239.638 189.956 239.76 189.946C240.36 189.946 240.635 189.446 240.936 188.852C241.304 188.126 241.636 187.282 241.636 187.282C241.636 187.282 241.222 189.563 242.347 189.563C242.756 189.563 243.17 189.031 243.355 188.763V188.768L243.386 188.717L243.452 188.61V188.6C243.616 188.314 243.984 187.664 244.531 186.585C245.237 185.194 245.917 183.455 245.917 183.455C245.982 183.837 246.073 184.214 246.188 184.585C246.353 185.034 246.547 185.471 246.771 185.894C246.607 186.124 246.505 186.252 246.505 186.252L246.51 186.257C246.377 186.431 246.234 186.62 246.075 186.804C245.602 187.324 245.163 187.874 244.761 188.451C244.701 188.548 244.681 188.664 244.703 188.775C244.726 188.887 244.791 188.985 244.884 189.051C245.094 189.16 245.334 189.2 245.569 189.164C245.922 189.144 246.27 189.064 246.597 188.929C246.913 188.818 247.211 188.661 247.482 188.464C247.761 188.27 247.986 188.008 248.135 187.703C248.283 187.397 248.351 187.059 248.331 186.72C248.299 186.293 248.19 185.875 248.009 185.487C248.06 185.415 248.109 185.344 248.157 185.272C248.725 184.423 249.238 183.538 249.691 182.623C249.756 183.005 249.847 183.382 249.962 183.753C250.098 184.141 250.265 184.517 250.462 184.878C249.808 185.381 249.293 186.042 248.965 186.8C248.643 187.731 248.893 188.15 249.365 188.247C249.623 188.265 249.881 188.212 250.112 188.094C250.451 187.982 250.77 187.818 251.058 187.608C251.361 187.429 251.616 187.177 251.798 186.875C251.98 186.573 252.084 186.231 252.101 185.879C252.078 185.527 251.999 185.182 251.866 184.856C252.729 184.519 253.665 184.411 254.582 184.544C257.016 184.83 257.497 186.349 257.405 186.989C257.362 187.216 257.271 187.431 257.137 187.619C257.004 187.808 256.832 187.966 256.633 188.083C256.464 188.19 256.408 188.226 256.423 188.303C256.443 188.416 256.523 188.41 256.668 188.39C257.035 188.276 257.358 188.053 257.596 187.752C257.834 187.45 257.975 187.083 258 186.7C258.077 185.2 256.645 183.555 254.113 183.57L254.11 183.572ZM235.33 189.9C234.522 190.78 233.397 191.112 232.911 190.831C232.389 190.531 232.594 189.231 233.586 188.299C234.174 187.769 234.81 187.295 235.486 186.882C235.604 186.81 235.778 186.708 235.986 186.582L236.042 186.551L236.165 186.474C236.342 187.068 236.358 187.698 236.211 188.3C236.065 188.902 235.76 189.454 235.33 189.9ZM241.211 185.9C240.93 186.585 240.342 188.34 239.984 188.242C239.677 188.16 239.484 186.83 239.923 185.516C240.145 184.883 240.467 184.291 240.879 183.762C241.319 183.271 241.805 183.107 241.922 183.307C241.815 184.202 241.576 185.076 241.211 185.9ZM246.064 188.222C245.946 188.283 245.834 188.322 245.783 188.294C245.747 188.274 245.834 188.194 245.834 188.194C245.834 188.194 246.443 187.539 246.683 187.243C246.821 187.069 246.983 186.865 247.159 186.634V186.7C247.159 187.482 246.402 188.009 246.065 188.224L246.064 188.222ZM249.808 187.368C249.721 187.307 249.736 187.102 250.028 186.463C250.231 186.052 250.515 185.687 250.862 185.389C250.915 185.54 250.943 185.699 250.944 185.86C250.948 186.201 250.839 186.535 250.633 186.808C250.428 187.081 250.138 187.278 249.809 187.369L249.808 187.368Z" fill="#CD6799"/>
</g>
<defs>
<filter id="filter0_d_1903_223" x="142.899" y="207.087" width="22.7181" height="22.7176" filterUnits="userSpaceOnUse" color-interpolation-filters="sRGB">
<feFlood flood-opacity="0" result="BackgroundImageFix"/>
<feColorMatrix in="SourceAlpha" type="matrix" values="0 0 0 0 0 0 0 0 0 0 0 0 0 0 0 0 0 0 127 0" result="hardAlpha"/>
<feOffset dy="0.98264"/>
<feGaussianBlur stdDeviation="1.96528"/>
<feColorMatrix type="matrix" values="0 0 0 0 0 0 0 0 0 0 0 0 0 0 0 0 0 0 0.15 0"/>
<feBlend mode="normal" in2="BackgroundImageFix" result="effect1_dropShadow_1903_223"/>
<feBlend mode="normal" in="SourceGraphic" in2="effect1_dropShadow_1903_223" result="shape"/>
</filter>
<linearGradient id="paint0_linear_1903_223" x1="138.568" y1="215.054" x2="173.61" y2="213.39" gradientUnits="userSpaceOnUse">
<stop stop-color="#9013FE"/>
<stop offset="1" stop-color="#6610F2"/>
</linearGradient>
<linearGradient id="paint1_linear_1903_223" x1="148.129" y1="214.887" x2="159.589" y2="218.665" gradientUnits="userSpaceOnUse">
<stop stop-color="white"/>
<stop offset="1" stop-color="#F1E5FC"/>
</linearGradient>
<linearGradient id="paint2_linear_1903_223" x1="30.7025" y1="749.536" x2="2660.94" y2="2554.89" gradientUnits="userSpaceOnUse">
<stop stop-color="#2298BD"/>
<stop offset="1" stop-color="#0ED7B5"/>
</linearGradient>
<clipPath id="clip0_1903_223">
<rect width="32" height="32" fill="white" transform="translate(212.495 225) rotate(8.07498)"/>
</clipPath>
<clipPath id="clip1_1903_223">
<rect width="32" height="32" fill="white" transform="translate(132 215.062) rotate(-41.1616)"/>
</clipPath>
<clipPath id="clip2_1903_223">
<rect width="32" height="19.25" fill="white" transform="translate(167.51 144) rotate(4.49811)"/>
</clipPath>
</defs>
</svg>
